<svg preserveAspectRatio="none" overflow="visible" style="display: block;" width="523.882" height="423.764" viewBox="0 0 523.882 423.764" fill="none" xmlns="http://www.w3.org/2000/svg">
<g id="Group">
<path id="Vector" fill-rule="evenodd" clip-rule="evenodd" d="M48 163.882H456C468.73 163.882 480.939 168.939 489.941 177.941C498.943 186.943 504 199.152 504 211.882C504 224.613 498.943 236.822 489.941 245.823C480.939 254.825 468.73 259.882 456 259.882H48C35.2696 259.882 23.0606 254.825 14.0589 245.823C5.05713 236.822 0 224.613 0 211.882C0 199.152 5.05713 186.943 14.0589 177.941C23.0606 168.939 35.2696 163.882 48 163.882ZM34.08 211.882C34.08 213.71 34.44 215.52 35.1396 217.209C35.8391 218.898 36.8645 220.433 38.1571 221.725C39.4497 223.018 40.9842 224.043 42.673 224.743C44.3619 225.442 46.172 225.802 48 225.802C49.828 225.802 51.6381 225.442 53.327 224.743C55.0158 224.043 56.5503 223.018 57.8429 221.725C59.1355 220.433 60.1609 218.898 60.8604 217.209C61.56 215.52 61.92 213.71 61.92 211.882C61.92 210.054 61.56 208.244 60.8604 206.555C60.1609 204.866 59.1355 203.332 57.8429 202.039C56.5503 200.747 55.0158 199.721 53.327 199.022C51.6381 198.322 49.828 197.962 48 197.962C46.172 197.962 44.3619 198.322 42.673 199.022C40.9842 199.721 39.4497 200.747 38.1571 202.039C36.8645 203.332 35.8391 204.866 35.1396 206.555C34.44 208.244 34.08 210.054 34.08 211.882ZM442.08 211.882C442.08 215.574 443.547 219.115 446.157 221.725C448.768 224.336 452.308 225.802 456 225.802C459.692 225.802 463.232 224.336 465.843 221.725C468.453 219.115 469.92 215.574 469.92 211.882C469.92 208.19 468.453 204.65 465.843 202.039C463.232 199.429 459.692 197.962 456 197.962C452.308 197.962 448.768 199.429 446.157 202.039C443.547 204.65 442.08 208.19 442.08 211.882ZM110.4 202.282H393.6C396.146 202.282 398.588 203.294 400.388 205.094C402.189 206.894 403.2 209.336 403.2 211.882C403.2 214.428 402.189 216.87 400.388 218.67C398.588 220.471 396.146 221.482 393.6 221.482H110.4C107.854 221.482 105.412 220.471 103.612 218.67C101.811 216.87 100.8 214.428 100.8 211.882C100.8 209.336 101.811 206.894 103.612 205.094C105.412 203.294 107.854 202.282 110.4 202.282Z" fill="#F4EFDF"/>
<path id="Vector_2" fill-rule="evenodd" clip-rule="evenodd" d="M345.941 33.9411L489.941 177.941C498.943 186.943 504 199.152 504 211.882C504 224.613 498.943 236.822 489.941 245.823C480.939 254.825 468.73 259.882 456 259.882C443.27 259.882 431.061 254.825 422.059 245.823L278.059 101.823C269.057 92.8216 264 80.6126 264 67.8822C264 55.1519 269.057 42.9429 278.059 33.9411C287.061 24.9394 299.27 19.8823 312 19.8823C324.73 19.8823 336.939 24.9394 345.941 33.9411ZM302.157 58.0393C300.864 59.3319 299.839 60.8664 299.14 62.5553C298.44 64.2441 298.08 66.0542 298.08 67.8822C298.08 69.7103 298.44 71.5204 299.14 73.2092C299.839 74.8981 300.864 76.4326 302.157 77.7252C303.45 79.0178 304.984 80.0431 306.673 80.7427C308.362 81.4422 310.172 81.8022 312 81.8022C313.828 81.8022 315.638 81.4422 317.327 80.7427C319.016 80.0431 320.55 79.0178 321.843 77.7252C323.136 76.4326 324.161 74.8981 324.86 73.2092C325.56 71.5204 325.92 69.7103 325.92 67.8822C325.92 66.0542 325.56 64.2441 324.86 62.5553C324.161 60.8664 323.136 59.3319 321.843 58.0393C320.55 56.7467 319.016 55.7214 317.327 55.0218C315.638 54.3223 313.828 53.9623 312 53.9623C310.172 53.9623 308.362 54.3223 306.673 55.0218C304.984 55.7214 303.45 56.7467 302.157 58.0393ZM446.157 202.039C443.547 204.65 442.08 208.19 442.08 211.882C442.08 215.574 443.547 219.115 446.157 221.725C448.768 224.336 452.308 225.802 456 225.802C459.692 225.802 463.232 224.336 465.843 221.725C468.453 219.115 469.92 215.574 469.92 211.882C469.92 208.19 468.453 204.65 465.843 202.039C463.232 199.429 459.692 197.962 456 197.962C452.308 197.962 448.768 199.429 446.157 202.039ZM362.912 105.217L418.665 160.971C420.465 162.771 421.477 165.213 421.477 167.759C421.477 170.305 420.465 172.747 418.665 174.547C416.864 176.347 414.423 177.359 411.877 177.359C409.33 177.359 406.889 176.347 405.088 174.547L349.335 118.794C347.535 116.994 346.523 114.552 346.523 112.006C346.523 109.46 347.535 107.018 349.335 105.217C351.136 103.417 353.577 102.406 356.123 102.406C358.67 102.406 361.111 103.417 362.912 105.217Z" fill="#F4EFDF"/>
<path id="Vector_3" fill-rule="evenodd" clip-rule="evenodd" d="M278.059 321.941L422.059 177.941C431.061 168.939 443.27 163.882 456 163.882C468.73 163.882 480.939 168.939 489.941 177.941C498.943 186.943 504 199.152 504 211.882C504 224.613 498.943 236.822 489.941 245.823L345.941 389.823C336.939 398.825 324.73 403.882 312 403.882C299.27 403.882 287.061 398.825 278.059 389.823C269.057 380.822 264 368.613 264 355.882C264 343.152 269.057 330.943 278.059 321.941ZM302.157 365.725C303.45 367.018 304.984 368.043 306.673 368.743C308.362 369.442 310.172 369.802 312 369.802C313.828 369.802 315.638 369.442 317.327 368.743C319.016 368.043 320.55 367.018 321.843 365.725C323.136 364.433 324.161 362.898 324.86 361.209C325.56 359.52 325.92 357.71 325.92 355.882C325.92 354.054 325.56 352.244 324.86 350.555C324.161 348.866 323.136 347.332 321.843 346.039C320.55 344.747 319.016 343.721 317.327 343.022C315.638 342.322 313.828 341.962 312 341.962C310.172 341.962 308.362 342.322 306.673 343.022C304.984 343.721 303.45 344.747 302.157 346.039C300.864 347.332 299.839 348.866 299.14 350.555C298.44 352.244 298.08 354.054 298.08 355.882C298.08 357.71 298.44 359.52 299.14 361.209C299.839 362.898 300.864 364.433 302.157 365.725ZM446.157 221.725C448.768 224.336 452.308 225.802 456 225.802C459.692 225.802 463.232 224.336 465.843 221.725C468.453 219.115 469.92 215.574 469.92 211.882C469.92 208.19 468.453 204.65 465.843 202.039C463.232 199.429 459.692 197.962 456 197.962C452.308 197.962 448.768 199.429 446.157 202.039C443.547 204.65 442.08 208.19 442.08 211.882C442.08 215.574 443.547 219.115 446.157 221.725ZM349.335 304.971L405.088 249.217C406.889 247.417 409.33 246.406 411.877 246.406C414.423 246.406 416.864 247.417 418.665 249.217C420.465 251.018 421.477 253.46 421.477 256.006C421.477 258.552 420.465 260.994 418.665 262.794L362.912 318.547C361.111 320.347 358.67 321.359 356.123 321.359C353.577 321.359 351.136 320.347 349.335 318.547C347.535 316.747 346.523 314.305 346.523 311.759C346.523 309.213 347.535 306.771 349.335 304.971Z" fill="#F4EFDF"/>
<path id="Vector_4" fill-rule="evenodd" clip-rule="evenodd" d="M430 211.882C430 218.778 432.739 225.391 437.615 230.267C442.491 235.143 449.104 237.882 456 237.882C462.896 237.882 469.509 235.143 474.385 230.267C479.261 225.391 482 218.778 482 211.882C482 204.987 479.261 198.373 474.385 193.497C469.509 188.622 462.896 185.882 456 185.882C449.104 185.882 442.491 188.622 437.615 193.497C432.739 198.373 430 204.987 430 211.882ZM448 211.882C448 214.004 448.843 216.039 450.343 217.539C451.843 219.039 453.878 219.882 456 219.882C458.122 219.882 460.157 219.039 461.657 217.539C463.157 216.039 464 214.004 464 211.882C464 209.761 463.157 207.726 461.657 206.225C460.157 204.725 458.122 203.882 456 203.882C453.878 203.882 451.843 204.725 450.343 206.225C448.843 207.726 448 209.761 448 211.882Z" fill="#F4EFDF"/>
<path id="Vector_5" fill-rule="evenodd" clip-rule="evenodd" d="M27 211.882C27 217.452 29.2125 222.793 33.1508 226.731C37.089 230.67 42.4305 232.882 48 232.882C53.5695 232.882 58.911 230.67 62.8492 226.731C66.7875 222.793 69 217.452 69 211.882C69 206.313 66.7875 200.971 62.8492 197.033C58.911 193.095 53.5695 190.882 48 190.882C42.4305 190.882 37.089 193.095 33.1508 197.033C29.2125 200.971 27 206.313 27 211.882ZM41 211.882C41 213.739 41.7375 215.519 43.0503 216.832C44.363 218.145 46.1435 218.882 48 218.882C49.8565 218.882 51.637 218.145 52.9497 216.832C54.2625 215.519 55 213.739 55 211.882C55 210.026 54.2625 208.245 52.9497 206.933C51.637 205.62 49.8565 204.882 48 204.882C46.1435 204.882 44.363 205.62 43.0503 206.933C41.7375 208.245 41 210.026 41 211.882Z" fill="#F4EFDF"/>
<path id="Vector_6" fill-rule="evenodd" clip-rule="evenodd" d="M291 67.8822C291 73.4518 293.212 78.7932 297.151 82.7315C301.089 86.6698 306.43 88.8822 312 88.8822C317.57 88.8822 322.911 86.6698 326.849 82.7315C330.788 78.7932 333 73.4518 333 67.8822C333 62.3127 330.788 56.9713 326.849 53.033C322.911 49.0947 317.57 46.8822 312 46.8822C306.43 46.8822 301.089 49.0947 297.151 53.033C293.212 56.9713 291 62.3127 291 67.8822ZM305 67.8822C305 69.7388 305.738 71.5192 307.05 72.832C308.363 74.1448 310.143 74.8822 312 74.8822C313.857 74.8822 315.637 74.1448 316.95 72.832C318.262 71.5192 319 69.7388 319 67.8822C319 66.0257 318.262 64.2452 316.95 62.9325C315.637 61.6197 313.857 60.8822 312 60.8822C310.143 60.8822 308.363 61.6197 307.05 62.9325C305.738 64.2452 305 66.0257 305 67.8822Z" fill="#F4EFDF"/>
<path id="Vector_7" fill-rule="evenodd" clip-rule="evenodd" d="M291 355.882C291 361.452 293.212 366.793 297.151 370.732C301.089 374.67 306.43 376.882 312 376.882C317.57 376.882 322.911 374.67 326.849 370.732C330.788 366.793 333 361.452 333 355.882C333 350.313 330.788 344.971 326.849 341.033C322.911 337.095 317.57 334.882 312 334.882C306.43 334.882 301.089 337.095 297.151 341.033C293.212 344.971 291 350.313 291 355.882ZM305 355.882C305 357.739 305.738 359.519 307.05 360.832C308.363 362.145 310.143 362.882 312 362.882C313.857 362.882 315.637 362.145 316.95 360.832C318.262 359.519 319 357.739 319 355.882C319 354.026 318.262 352.245 316.95 350.933C315.637 349.62 313.857 348.882 312 348.882C310.143 348.882 308.363 349.62 307.05 350.933C305.738 352.245 305 354.026 305 355.882Z" fill="#F4EFDF"/>
</g>
</svg>
